<?xml version="1.0" encoding="UTF-8" standalone="no"?>
<!DOCTYPE svg PUBLIC "-//W3C//DTD SVG 1.1//EN" "http://www.w3.org/Graphics/SVG/1.1/DTD/svg11.dtd">
<svg width="100%" height="100%" viewBox="0 0 1142 551" version="1.1" xmlns="http://www.w3.org/2000/svg" xmlns:xlink="http://www.w3.org/1999/xlink" xml:space="preserve" xmlns:serif="http://www.serif.com/" style="fill-rule:evenodd;clip-rule:evenodd;stroke-linecap:round;stroke-linejoin:round;stroke-miterlimit:1.5;">
    <g transform="matrix(1,0,0,1,-8037.766701,-2506.156101)">
        <g id="Artboard2" transform="matrix(1,0,0,1,-0.850394,0)">
            <rect x="5196.85" y="0" width="4960.63" height="3507.874" style="fill:none;"/>
            <g transform="matrix(1,0,0,0.603592,2214.544855,1265.44403)">
                <rect x="5785.118" y="1901.851" width="1219.856" height="1219.856" style="fill:none;"/>
            </g>
            <g transform="matrix(1,0,0,1,2604.262211,1099.159564)">
                <g transform="matrix(1,0,0,1,3882.459307,96.156133)">
                    <g transform="matrix(1,0,0,1,-785.165824,-2.481427)">
                        <path d="M2852.393,1323.738L2622.453,1559.136L2735.023,1559.136" style="fill:none;stroke:black;stroke-width:20.83px;"/>
                    </g>
                    <g transform="matrix(2.272737,0,0,2.272737,-3134.571198,-2310.345964)">
                        <circle cx="2247.016" cy="1668.605" r="6.806"/>
                    </g>
                    <g transform="matrix(2.272737,0,0,2.272737,-3076.814223,-2310.345964)">
                        <circle cx="2247.016" cy="1668.605" r="6.806"/>
                    </g>
                    <g transform="matrix(1,0,0,1,-787.491591,-2.481427)">
                        <path d="M2795.416,1441.656L2911.506,1323.738" style="fill:none;stroke:black;stroke-width:20.83px;"/>
                    </g>
                    <g transform="matrix(1,0,0,1,-729.446421,-2.481427)">
                        <path d="M2795.416,1441.656L2911.506,1323.738" style="fill:none;stroke:black;stroke-width:20.83px;"/>
                    </g>
                </g>
                <g transform="matrix(1,0,0,1,-29.76003,-1170.35065)">
                    <path d="M6167.594,3117.685L6059.668,2747.641M5723.486,2851.739L5474.532,3117.685L6167.816,3117.685" style="fill:none;stroke:black;stroke-width:20.83px;"/>
                </g>
                <g transform="matrix(0.933408,0.358816,-0.358816,0.933408,4255.319829,-763.662026)">
                    <path d="M2795.416,1441.656L2911.506,1323.738" style="fill:none;stroke:black;stroke-width:20.83px;"/>
                </g>
                <g transform="matrix(0.933408,0.358816,-0.358816,0.933408,4209.601401,-636.893919)">
                    <path d="M2795.416,1441.656L2911.506,1323.738" style="fill:none;stroke:black;stroke-width:20.83px;"/>
                </g>
                <g transform="matrix(0.933408,0.358816,-0.358816,0.933408,4231.395229,-700.277973)">
                    <path d="M2795.416,1441.656L2911.506,1323.738" style="fill:none;stroke:black;stroke-width:20.83px;"/>
                </g>
                <g transform="matrix(1,0,0,1,0.850394,0)">
                    <path d="M6158.051,1618.752L5443.921,1947.334" style="fill:none;stroke:black;stroke-width:20.83px;stroke-dasharray:20.833,41.667,0,0,0,0;stroke-dashoffset:20.833;"/>
                </g>
                <g transform="matrix(1.426303,0,0,1.426303,-2742.376392,-604.247248)">
                    <path d="M6434.925,1417.413L6226.035,1417.413" style="fill:none;stroke:black;stroke-width:14.61px;"/>
                </g>
                <g transform="matrix(1,0,0,1,-181.759084,0)">
                    <path d="M6319.815,1947.334L6505.129,1750.885" style="fill:none;stroke:black;stroke-width:20.83px;"/>
                </g>
                <g transform="matrix(0.988061,-0.03734,0.058604,0.988346,3123.740195,213.360188)">
                    <path d="M3009.829,1523.259C3039.128,1511.254 3247.569,1425.744 3402.955,1361.997" style="fill:none;stroke:black;stroke-width:20.83px;"/>
                </g>
            </g>
        </g>
    </g>
</svg>
